<svg width="26" height="24" viewBox="0 0 26 24" fill="none" xmlns="http://www.w3.org/2000/svg">
<path d="M9.33333 17.3333V6.66667C9.33333 5.95942 9.61429 5.28115 10.1144 4.78105C10.6145 4.28095 11.2928 4 12 4H24V2.66667C24 1.2 22.8 0 21.3333 0H2.66667C1.95942 0 1.28115 0.280951 0.781048 0.781048C0.280951 1.28115 0 1.95942 0 2.66667V21.3333C0 22.0406 0.280951 22.7189 0.781048 23.219C1.28115 23.719 1.95942 24 2.66667 24H21.3333C22.8 24 24 22.8 24 21.3333V20H12C11.2928 20 10.6145 19.719 10.1144 19.219C9.61429 18.7189 9.33333 18.0406 9.33333 17.3333ZM13.3333 6.66667C12.6 6.66667 12 7.26667 12 8V16C12 16.7333 12.6 17.3333 13.3333 17.3333H25.3333V6.66667H13.3333ZM17.3333 14C16.2267 14 15.3333 13.1067 15.3333 12C15.3333 10.8933 16.2267 10 17.3333 10C18.44 10 19.3333 10.8933 19.3333 12C19.3333 13.1067 18.44 14 17.3333 14Z" fill="#8A8A8A"/>
</svg>
